<!-- Generator: Adobe Illustrator 23.0.4, SVG Export Plug-In  -->
<svg version="1.1" xmlns="http://www.w3.org/2000/svg" xmlns:xlink="http://www.w3.org/1999/xlink" x="0px" y="0px"
	 width="1480.865px" height="232.611px" viewBox="0 0 1480.865 232.611" enable-background="new 0 0 1480.865 232.611"
	 xml:space="preserve">
<defs>
</defs>
<g>
	<path fill="#211F1F" d="M311.474,0h28.325v67.853h0.501c7.702-12.849,23.852-20.819,38.263-20.819
		c40.495,0,60.13,31.883,60.13,70.697c0,35.717-17.39,69.389-55.412,69.389c-17.394,0-36.028-4.36-44.479-21.843h-0.492v18.257
		h-26.837V0.004L311.474,0z M374.832,70.166c-23.845,0-36.028,18.768-36.028,47.041c0,26.726,13.174,46.784,36.028,46.784
		c25.845,0,35.534-23.651,35.534-46.784c-0.018-24.157-12.195-47.041-35.542-47.041"/>
	<path fill="#211F1F" d="M658.107,47.033c-16.896,0-31.558,8.995-40.008,23.655l-0.495-0.522v-19.53h-26.836v113.177
		c-16.154,0.184-17.659,0.184-18.892,0.184c-5.216,0-6.711-2.828-6.711-10.026V85.59c0-28.009-26.335-38.557-51.439-38.557
		c-28.326,0-56.398,10.02-58.379,44.217h28.319c1.247-14.396,12.421-21.084,28.325-21.084c11.428,0,26.586,2.836,26.586,17.998
		c0,17.221-18.138,14.905-38.514,18.768c-23.853,2.818-49.443,8.231-49.443,41.373c0,25.971,20.869,38.815,43.973,38.815
		c15.161,0,33.295-4.884,44.483-16.174c2.227,12.071,10.436,16.174,21.863,16.174c4.72,0,13.664-1.793,57.975-3.335v-0.262h0.177
		v-78.387c0-19.542,12.178-34.966,31.058-34.966c16.647,0,24.605,9.001,25.096,29.817v83.539h28.337V92.28
		c0.055-29.813-17.595-45.243-45.43-45.243 M536.894,138.805c0,18.504-19.382,25.194-31.805,25.194
		c-9.943,0-26.098-3.869-26.098-16.97c0-15.428,10.939-20.058,23.119-22.115c12.418-2.312,26.086-2.047,34.784-7.959V138.805z"/>
	<path fill="#211F1F" d="M849.447,183.526h-26.839v-17.992h-0.491c-7.452,15.166-23.612,21.585-39.76,21.585
		c-40.494,0-60.129-31.105-60.129-70.939c0-48.065,27.584-69.144,55.665-69.144c16.143,0,34.029,6.173,42.728,20.816h0.506V0.005
		h28.321V183.53L849.447,183.526z M786.088,163.996c25.341,0,36.03-23.909,36.03-47.048c0-29.291-13.664-46.782-35.534-46.782
		c-26.589,0-36.032,24.422-36.032,48.322c0,22.879,10.929,45.503,35.541,45.503"/>
	<path fill="#211F1F" d="M962.012,95.107c-2.239-16.194-13.666-24.939-29.318-24.939c-14.668,0-35.286,7.973-35.286,48.329
		c0,22.108,9.438,45.502,34.042,45.502c16.396,0,27.822-11.323,30.562-30.346h28.323c-5.22,34.443-25.838,53.466-58.886,53.466
		c-40.255,0-62.367-29.552-62.367-68.622c0-40.096,21.12-71.456,63.36-71.456c29.815,0,55.167,15.421,57.893,48.067h-28.277
		L962.012,95.107z"/>
	<path fill="#211F1F" d="M1285.056,47.033c-18.634,0-30.811,8.487-40.248,22.106c-5.72-15.157-20.38-22.106-36.033-22.106
		c-20.379,0-31.063,8.995-39.51,22.106h-0.744V50.636h-26.848v113.177c-16.152,0.184-17.656,0.184-18.899,0.184
		c-5.218,0-6.701-2.828-6.701-10.026V85.59c0-28.009-26.338-38.557-51.443-38.557c-28.318,0-56.4,10.02-58.392,44.217h28.335
		c1.234-14.396,12.424-21.084,28.327-21.084c11.428,0,26.584,2.836,26.584,17.998c0,17.221-18.142,14.905-38.517,18.768
		c-23.854,2.818-49.447,8.231-49.447,41.373c0,25.971,20.867,38.815,43.979,38.815c15.161,0,33.295-4.884,44.478-16.174
		c2.236,12.071,10.433,16.174,21.872,16.174c4.715,0,13.664-1.793,57.567-3.335v-0.262h0.58v-78.904
		c0-22.105,13.423-34.448,28.084-34.448c17.144,0,22.614,9.762,22.614,28.026v85.33h28.319v-77.881
		c0-22.366,8.195-35.474,27.334-35.474c22.114,0,23.354,14.65,23.354,35.736v77.617h28.325V91.768
		c0.017-32.394-15.882-44.731-42.949-44.731 M1087.76,138.805c0,18.504-19.376,25.194-31.807,25.194
		c-9.934,0-26.085-3.869-26.085-16.97c0-15.428,10.939-20.058,23.105-22.115c12.431-2.312,26.096-2.047,34.786-7.959V138.805z"/>
	<path fill="#211F1F" d="M1353.644,50.636h26.837v17.992h0.494c7.951-15.16,23.356-21.595,39.757-21.595
		c40.502,0,60.133,31.883,60.133,70.697c0,35.717-17.397,69.389-55.407,69.389c-16.398,0-34.048-6.166-42.985-20.808h-0.502v66.3
		h-28.328V50.647L1353.644,50.636z M1417.003,70.166c-23.853,0-36.032,18.768-36.032,47.041c0,26.726,13.167,46.784,36.032,46.784
		c25.837,0,35.534-23.651,35.534-46.784c0-24.157-12.194-47.041-35.541-47.041"/>
	<polygon fill="#211F1F" points="212.447,183.134 0,183.134 99.209,0 311.658,0 	"/>
</g>
</svg>
